<?xml version="1.0" encoding="utf-8"?><svg xmlns="http://www.w3.org/2000/svg" xmlns:xlink="http://www.w3.org/1999/xlink"><symbol viewBox="0 0 60 60" id="about-entry" xmlns="http://www.w3.org/2000/svg"><path d="M50.975 19.694c-.527-9-7.946-16.194-16.891-16.194-5.43 0-10.688 2.663-13.946 7.008-.075-.039-.155-.066-.231-.103a9.109 9.109 0 0 0-.597-.266c-.118-.047-.238-.089-.358-.131a8.679 8.679 0 0 0-.6-.185c-.12-.032-.239-.065-.36-.093a8.686 8.686 0 0 0-.67-.121c-.105-.016-.209-.036-.315-.048A8.81 8.81 0 0 0 16 9.5c-4.962 0-9 4.037-9 9 0 .129.008.255.016.381C2.857 21.148 0 25.899 0 30.654 0 37.737 5.762 43.5 12.845 43.5H18a1 1 0 1 0 0-2h-5.155C6.865 41.5 2 36.635 2 30.654c0-4.154 2.705-8.466 6.432-10.253L9 20.13v-.63c0-.123.008-.249.015-.375l.009-.173-.012-.202A3.458 3.458 0 0 1 9 18.5c0-3.859 3.14-7 7-7 .309 0 .614.027.917.067.078.01.156.023.234.036.267.044.53.102.789.176.035.01.071.017.106.027a6.978 6.978 0 0 1 1.043.421A6.999 6.999 0 0 1 23 18.5a1 1 0 1 0 2 0 8.98 8.98 0 0 0-3.2-6.871C24.666 7.879 29.388 5.5 34.084 5.5c7.744 0 14.178 6.135 14.848 13.887-1.022-.072-2.553-.109-4.083.125a1 1 0 1 0 .301 1.977c2.224-.336 4.543-.021 4.684-.002C54.49 22.372 58 26.661 58 31.472 58 37.001 53.501 41.5 47.972 41.5H44a1 1 0 1 0 0 2h3.972C54.604 43.5 60 38.104 60 31.472c0-5.489-3.827-10.412-9.025-11.778z"/><path d="M38.293 34.207a.997.997 0 0 0 1.414 0 .999.999 0 0 0 0-1.414l-7.999-7.999a1.001 1.001 0 0 0-1.416 0l-7.999 7.999a.999.999 0 1 0 1.414 1.414L30 27.914v25.172l-6.293-6.293a.999.999 0 1 0-1.414 1.414l7.999 7.999A1.01 1.01 0 0 0 31 56.5a1.01 1.01 0 0 0 .708-.294l7.999-7.999a.999.999 0 1 0-1.414-1.414L32 53.086V27.914l6.293 6.293z"/></symbol><symbol viewBox="0 0 306 306" id="arrow_down" xmlns="http://www.w3.org/2000/svg"><path fill="#FFF" d="M270.3 58.65L153 175.95 35.7 58.65 0 94.35l153 153 153-153z"/></symbol><symbol viewBox="0 0 212.982 212.982" id="cancel" xmlns="http://www.w3.org/2000/svg"><path d="M131.804 106.491l75.936-75.936c6.99-6.99 6.99-18.323 0-25.312-6.99-6.99-18.322-6.99-25.312 0L106.491 81.18 30.554 5.242c-6.99-6.99-18.322-6.99-25.312 0-6.989 6.99-6.989 18.323 0 25.312l75.937 75.936-75.937 75.937c-6.989 6.99-6.989 18.323 0 25.312 6.99 6.99 18.322 6.99 25.312 0l75.937-75.937 75.937 75.937c6.989 6.99 18.322 6.99 25.312 0 6.99-6.99 6.99-18.322 0-25.312l-75.936-75.936z" fill-rule="evenodd" clip-rule="evenodd"/></symbol><symbol viewBox="0 0 310 310" id="facebook" xmlns="http://www.w3.org/2000/svg"><path d="M81.703 165.106h33.981V305a5 5 0 0 0 5 5H178.3a5 5 0 0 0 5-5V165.765h39.064a5 5 0 0 0 4.967-4.429l5.933-51.502a5 5 0 0 0-4.966-5.572h-44.996V71.978c0-9.732 5.24-14.667 15.576-14.667h29.42a5 5 0 0 0 5-5V5.037a5 5 0 0 0-5-5h-40.545A39.746 39.746 0 0 0 185.896 0c-7.035 0-31.488 1.381-50.804 19.151-21.402 19.692-18.427 43.27-17.716 47.358v37.752H81.703a5 5 0 0 0-5 5v50.844a5 5 0 0 0 5 5.001z"/></symbol><symbol viewBox="0 0 300 300" id="instagram" xmlns="http://www.w3.org/2000/svg"><path d="M38.52.012h222.978C282.682.012 300 17.336 300 38.52v222.978c0 21.178-17.318 38.49-38.502 38.49H38.52c-21.184 0-38.52-17.313-38.52-38.49V38.52C0 17.336 17.336.012 38.52.012zm180.026 33.317c-7.438 0-13.505 6.091-13.505 13.525v32.314c0 7.437 6.067 13.514 13.505 13.514h33.903c7.426 0 13.506-6.077 13.506-13.514V46.854c0-7.434-6.08-13.525-13.506-13.525h-33.903zm47.538 93.539h-26.396a87.715 87.715 0 0 1 3.86 25.759c0 49.882-41.766 90.34-93.266 90.34-51.487 0-93.254-40.458-93.254-90.34 0-8.963 1.37-17.584 3.861-25.759H33.35V253.6c0 6.563 5.359 11.902 11.916 11.902h208.907c6.563 0 11.911-5.339 11.911-11.902V126.868zm-115.801-35.89c-33.26 0-60.24 26.128-60.24 58.388 0 32.227 26.98 58.375 60.24 58.375 33.278 0 60.259-26.148 60.259-58.375 0-32.261-26.981-58.388-60.259-58.388z"/></symbol><symbol viewBox="0 0 548.176 548.176" id="keyboard" xmlns="http://www.w3.org/2000/svg"><path d="M537.468 120.342c-7.139-7.139-15.753-10.709-25.841-10.709H36.545c-10.088 0-18.699 3.571-25.837 10.709C3.571 127.48 0 136.094 0 146.179v255.815c0 10.089 3.571 18.698 10.708 25.837 7.139 7.139 15.749 10.712 25.837 10.712h475.082c10.088 0 18.702-3.573 25.841-10.712 7.135-7.139 10.708-15.748 10.708-25.837V146.179c0-10.085-3.573-18.699-10.708-25.837zm-25.841 281.652H36.545V146.179h475.082v255.815z"/><path d="M77.657 365.445h27.408c3.046 0 4.569-1.526 4.569-4.568v-27.408c0-3.039-1.52-4.568-4.569-4.568H77.657c-3.044 0-4.568 1.529-4.568 4.568v27.408c0 3.042 1.524 4.568 4.568 4.568zm0-73.083h63.954c3.045 0 4.57-1.53 4.57-4.572v-27.41c0-3.045-1.525-4.565-4.57-4.568H77.657c-3.044 0-4.568 1.523-4.568 4.568v27.41c0 3.042 1.524 4.572 4.568 4.572zm0-73.094h27.408c3.046 0 4.569-1.525 4.569-4.57v-27.406c0-3.046-1.52-4.565-4.569-4.57H77.657c-3.044 0-4.568 1.524-4.568 4.57v27.406c0 3.045 1.524 4.57 4.568 4.57zM397.43 328.903H150.751c-3.046 0-4.57 1.526-4.57 4.572v27.404c0 3.039 1.524 4.572 4.57 4.572h246.67c3.046 0 4.572-1.526 4.572-4.572v-27.404c.001-3.045-1.525-4.572-4.563-4.572zM182.725 287.79c0 3.042 1.523 4.572 4.565 4.572h27.412c3.044 0 4.565-1.53 4.565-4.572v-27.41c0-3.045-1.518-4.565-4.565-4.568H187.29c-3.042 0-4.565 1.523-4.565 4.568v27.41zm-31.974-68.522h27.406c3.046 0 4.57-1.525 4.57-4.57v-27.406c0-3.046-1.524-4.565-4.57-4.57h-27.406c-3.046 0-4.57 1.524-4.57 4.57v27.406c0 3.045 1.525 4.57 4.57 4.57zm105.062 68.522c0 3.042 1.524 4.572 4.568 4.572h27.408c3.046 0 4.572-1.53 4.572-4.572v-27.41c0-3.045-1.526-4.565-4.572-4.568h-27.408c-3.044 0-4.568 1.523-4.568 4.568v27.41zm-31.976-68.522h27.406c3.046 0 4.57-1.525 4.57-4.57v-27.406c0-3.046-1.521-4.565-4.57-4.57h-27.406c-3.046 0-4.57 1.524-4.57 4.57v27.406c0 3.045 1.524 4.57 4.57 4.57zm105.067 68.522c0 3.042 1.525 4.572 4.564 4.572h27.412c3.045 0 4.564-1.53 4.564-4.572v-27.41c0-3.045-1.52-4.565-4.564-4.568h-27.412c-3.039 0-4.564 1.523-4.564 4.568v27.41zm141.609 41.113h-27.404c-3.046 0-4.572 1.526-4.572 4.572v27.404c0 3.039 1.526 4.572 4.572 4.572h27.404c3.046 0 4.572-1.526 4.572-4.572v-27.404c0-3.045-1.523-4.572-4.572-4.572zM296.928 219.268h27.411c3.046 0 4.565-1.525 4.565-4.57v-27.406c0-3.046-1.52-4.565-4.565-4.57h-27.411c-3.046 0-4.565 1.524-4.565 4.57v27.406c-.001 3.045 1.519 4.57 4.565 4.57zm73.09 0h27.404c3.046 0 4.572-1.525 4.572-4.57v-27.406c0-3.046-1.526-4.565-4.572-4.57h-27.404c-3.046 0-4.572 1.524-4.572 4.57v27.406c-.001 3.045 1.526 4.57 4.572 4.57zm31.973 68.522c0 3.042 1.522 4.572 4.568 4.572h63.953c3.046 0 4.572-1.53 4.572-4.572V187.292c0-3.046-1.522-4.565-4.572-4.57h-27.404c-3.046 0-4.572 1.524-4.572 4.57v68.52H406.56c-3.046 0-4.568 1.523-4.568 4.568v27.41z"/></symbol><symbol viewBox="0 0 438.536 438.536" id="light_bulb" xmlns="http://www.w3.org/2000/svg"><path d="M352.733 75.226c-8.466-16.271-19.599-29.787-33.394-40.541-13.801-10.752-29.413-19.223-46.821-25.41C255.1 3.094 237.349 0 219.266 0s-35.832 3.09-53.247 9.276c-17.417 6.187-33.025 14.657-46.826 25.41-13.796 10.754-24.932 24.267-33.402 40.541-8.47 16.274-12.703 33.83-12.703 52.677 0 29.502 9.805 55.006 29.409 76.516 8.567 9.324 15.656 17.604 21.271 24.838 5.617 7.228 11.279 16.316 16.989 27.261 5.708 10.944 8.945 21.176 9.707 30.696-8.947 5.332-13.418 13.135-13.418 23.415 0 7.042 2.378 13.134 7.139 18.274-4.76 5.14-7.139 11.231-7.139 18.273 0 9.897 4.285 17.604 12.85 23.131-2.478 4.373-3.715 8.847-3.715 13.415 0 8.754 2.996 15.516 8.992 20.27 5.992 4.757 13.369 7.139 22.126 7.139 3.806 8.374 9.519 15.037 17.13 19.985s15.891 7.419 24.838 7.419c8.949 0 17.227-2.471 24.838-7.419 7.614-4.948 13.329-11.611 17.135-19.985 8.754 0 16.132-2.382 22.124-7.139 5.995-4.754 8.99-11.516 8.99-20.27 0-4.568-1.239-9.042-3.717-13.415 8.562-5.523 12.851-13.233 12.851-23.131 0-7.042-2.382-13.134-7.139-18.273 4.757-5.141 7.139-11.232 7.139-18.274 0-10.28-4.474-18.083-13.422-23.415.763-9.521 4-19.752 9.708-30.696 5.719-10.944 11.376-20.033 16.995-27.261 5.619-7.234 12.706-15.515 21.265-24.838 19.605-21.51 29.414-47.014 29.414-76.516-.001-18.848-4.237-36.404-12.715-52.678zm-43.249 104.066a1264.349 1264.349 0 0 1-8.709 9.421c-3.898 4.187-6.8 7.324-8.703 9.419-24.362 29.126-37.78 57.482-40.255 85.078h-65.1c-2.474-27.596-15.891-55.952-40.256-85.078a1119.114 1119.114 0 0 0-8.709-9.419c-3.899-4.189-6.805-7.325-8.708-9.421-12.941-15.037-19.414-32.168-19.414-51.389 0-13.706 3.284-26.458 9.851-38.262 6.571-11.801 15.136-21.458 25.697-28.979 10.562-7.521 22.266-13.418 35.116-17.701 12.847-4.286 25.837-6.423 38.972-6.423s26.125 2.137 38.971 6.423c12.847 4.283 24.551 10.181 35.115 17.701 10.561 7.52 19.13 17.181 25.693 28.979 6.563 11.803 9.853 24.556 9.853 38.262 0 19.221-6.471 36.352-19.414 51.389z"/><path d="M247.674 86.795c-9.418-3.046-18.891-4.57-28.404-4.57-2.474 0-4.615.9-6.423 2.712-1.809 1.809-2.712 3.949-2.712 6.423s.904 4.615 2.712 6.423c1.809 1.805 3.949 2.712 6.423 2.712 9.9 0 19.985 2.38 30.272 7.135 10.273 4.758 15.406 11.516 15.406 20.273 0 2.473.9 4.618 2.711 6.423 1.813 1.804 3.949 2.708 6.42 2.708 2.478 0 4.616-.901 6.427-2.708 1.811-1.809 2.71-3.951 2.71-6.423 0-9.9-3.572-18.464-10.704-25.693-7.132-7.23-15.417-12.375-24.838-15.415z"/></symbol><symbol viewBox="0 0 475.084 475.085" id="lightning_bolt" xmlns="http://www.w3.org/2000/svg"><path d="M362.296 125.055c-2.851-2.853-6.092-4.28-9.706-4.287-.77 0-1.902.193-3.432.572L236.1 149.319 284.917 17.13c.951-1.903 1.431-3.614 1.431-5.139 0-3.234-1.242-6.04-3.713-8.42C280.161 1.188 277.115 0 273.501 0h-93.645c-3.045 0-5.708.855-7.994 2.568-2.284 1.715-3.809 3.905-4.568 6.567l-57.386 235.546c-.953 4.564.284 8.277 3.711 11.135 2.473 2.099 5.421 3.139 8.848 3.139 1.524 0 2.666-.089 3.427-.281l115.914-28.838-56.244 230.691c-.76 3.045-.333 5.899 1.287 8.562 1.619 2.669 4.047 4.476 7.281 5.427 1.903.377 3.239.568 3.999.568 5.52 0 9.514-2.375 11.991-7.136l154.172-330.332c2.095-4.567 1.434-8.756-1.998-12.561z"/></symbol><symbol viewBox="0 0 185.39507 57.991814" id="logo" xmlns="http://www.w3.org/2000/svg"><g fill="#fff"><path d="M71.463.349C59.869 1.507 45.84 4.846 30.015 10.093 10.827 16.5 7.986 16.908 1.957 14.183c-2.666-1.16-2.608-.069.174 2.793 6.203 6.474 12.522 7.973 22.898 5.452 7.594-1.908 18.377-1.908 28.869-.068 8.522 1.499 9.739 1.635 9.739.817 0-.681-15.536-4.157-22.318-4.974-6.087-.682-9.391-.477-18.029 1.158-4.927.954-10.898 1.09-8.927.136 1.101-.477 21.565-7.019 29.854-9.472C47.753 8.935 54.42 7.3 59.115 6.414 76.912 2.802 87 2.529 97.491 5.324c4.464 1.158 18.55 5.928 21.449 7.223.522.204.927.136.927-.273 0-1.567-20.231-9.745-28.347-11.38C87.115-.06 77.55-.265 71.463.349z"/><path d="M51.463 15.477c0 .75.348.818 11.594 3.135 17.275 3.543 23.884 4.02 49.274 3.884 12.927-.068 27.13.204 31.594.545 9.796.886 23.825 3.34 32.347 5.724 7.246 2.045 6.782 1.976 6.782 1.09 0-1.294-16.115-6.541-27.246-8.79-12.173-2.453-21.622-2.999-41.448-2.59-22.376.545-43.303-.613-60.404-3.339-1.507-.204-2.493-.068-2.493.34z"/><path d="M166.359 28.629c1.565 2.794 4.29 4.361 10.376 5.928 3.305.886 6.609 1.704 7.363 1.909 2.492.681 1.217-.954-2.32-2.999-4.463-2.59-13.448-6.337-15.071-6.337-1.102 0-1.102.136-.348 1.499zM60.738 55.546c0 1.09 6.609 1.636 26.029 2.18 19.71.546 42.955.205 42.955-.613 0-.885-9.275-1.362-39.245-1.84-20.29-.272-29.739-.204-29.739.273z"/></g><text x="42.56" y="149.589" font-weight="400" font-size="23.989" font-family="Nirmala UI" letter-spacing="0" word-spacing="0" stroke-width=".265" transform="translate(-17.672 -100.56)"><tspan x="42.56" y="149.589" fill="red"><tspan fill="#fff">INFO</tspan><tspan fill="#ff9b51">AVTO</tspan><tspan fill="#fff">24</tspan></tspan></text></symbol><symbol viewBox="0 0 483.3 483.3" id="mail" xmlns="http://www.w3.org/2000/svg"><path d="M424.3 57.75H59.1c-32.6 0-59.1 26.5-59.1 59.1v249.6c0 32.6 26.5 59.1 59.1 59.1h365.1c32.6 0 59.1-26.5 59.1-59.1v-249.5c.1-32.6-26.4-59.2-59-59.2zm32.1 308.7c0 17.7-14.4 32.1-32.1 32.1H59.1c-17.7 0-32.1-14.4-32.1-32.1v-249.5c0-17.7 14.4-32.1 32.1-32.1h365.1c17.7 0 32.1 14.4 32.1 32.1v249.5h.1z"/><path d="M304.8 238.55l118.2-106c5.5-5 6-13.5 1-19.1-5-5.5-13.5-6-19.1-1l-163 146.3-31.8-28.4c-.1-.1-.2-.2-.2-.3-.7-.7-1.4-1.3-2.2-1.9L78.3 112.35c-5.6-5-14.1-4.5-19.1 1.1-5 5.6-4.5 14.1 1.1 19.1l119.6 106.9-119.1 111.5c-5.4 5.1-5.7 13.6-.6 19.1 2.7 2.8 6.3 4.3 9.9 4.3 3.3 0 6.6-1.2 9.2-3.6l120.9-113.1 32.8 29.3c2.6 2.3 5.8 3.4 9 3.4s6.5-1.2 9-3.5l33.7-30.2 120.2 114.2c2.6 2.5 6 3.7 9.3 3.7 3.6 0 7.1-1.4 9.8-4.2 5.1-5.4 4.9-14-.5-19.1l-118.7-112.7z"/></symbol><symbol viewBox="0 0 310.05 310.05" id="pinterest" xmlns="http://www.w3.org/2000/svg"><path d="M245.265 31.772C223.923 11.284 194.388 0 162.101 0c-49.32 0-79.654 20.217-96.416 37.176-20.658 20.9-32.504 48.651-32.504 76.139 0 34.513 14.436 61.003 38.611 70.858 1.623.665 3.256 1 4.857 1 5.1 0 9.141-3.337 10.541-8.69.816-3.071 2.707-10.647 3.529-13.936 1.76-6.495.338-9.619-3.5-14.142-6.992-8.273-10.248-18.056-10.248-30.788 0-37.818 28.16-78.011 80.352-78.011 41.412 0 67.137 23.537 67.137 61.425 0 23.909-5.15 46.051-14.504 62.35-6.5 11.325-17.93 24.825-35.477 24.825-7.588 0-14.404-3.117-18.705-8.551-4.063-5.137-5.402-11.773-3.768-18.689 1.846-7.814 4.363-15.965 6.799-23.845 4.443-14.392 8.643-27.985 8.643-38.83 0-18.55-11.404-31.014-28.375-31.014-21.568 0-38.465 21.906-38.465 49.871 0 13.715 3.645 23.973 5.295 27.912-2.717 11.512-18.865 79.953-21.928 92.859-1.771 7.534-12.44 67.039 5.219 71.784 19.841 5.331 37.576-52.623 39.381-59.172 1.463-5.326 6.582-25.465 9.719-37.845 9.578 9.226 25 15.463 40.006 15.463 28.289 0 53.73-12.73 71.637-35.843 17.367-22.418 26.932-53.664 26.932-87.978 0-26.826-11.52-53.272-31.604-72.556z"/></symbol><symbol viewBox="0 0 250.313 250.313" id="search" xmlns="http://www.w3.org/2000/svg"><path d="M244.186 214.604l-54.379-54.378c-.289-.289-.628-.491-.93-.76 10.7-16.231 16.945-35.66 16.945-56.554C205.822 46.075 159.747 0 102.911 0S0 46.075 0 102.911c0 56.835 46.074 102.911 102.91 102.911 20.895 0 40.323-6.245 56.554-16.945.269.301.47.64.759.929l54.38 54.38c8.169 8.168 21.413 8.168 29.583 0 8.168-8.169 8.168-21.413 0-29.582zm-141.275-44.458c-37.134 0-67.236-30.102-67.236-67.235 0-37.134 30.103-67.236 67.236-67.236 37.132 0 67.235 30.103 67.235 67.236s-30.103 67.235-67.235 67.235z" fill-rule="evenodd" clip-rule="evenodd"/></symbol><symbol viewBox="0 0 433.102 433.102" id="spanner" xmlns="http://www.w3.org/2000/svg"><path d="M429.902 56.782c0-1.024-1.024-2.048-1.536-2.048-1.024 0-2.048 0-2.56.512l-46.08 45.056-47.616-47.616 46.08-46.08c1.024-1.024 1.024-2.56 0-3.584-.512-.512-.512-.512-1.024-.512-34.816-7.68-70.656 2.56-96.768 26.624-24.576 24.576-18.432 53.248-14.336 72.192.512 2.56 1.024 5.632 1.536 7.68-16.384 17.408-140.288 141.824-158.72 159.232-2.048-.512-4.096-1.024-6.656-1.536-18.944-4.608-46.592-11.264-72.192 13.824-24.064 25.6-34.304 61.44-26.624 95.744.512 1.536 1.536 2.048 3.072 2.048.512 0 1.024-.512 1.024-.512l46.08-45.056 47.616 47.616-46.08 46.08c-1.024 1.024-1.024 2.56 0 3.584.512.512.512.512 1.024.512 7.168 1.536 14.848 2.56 22.528 2.56 27.648 0 54.272-10.24 74.24-29.696 24.576-24.576 18.432-53.248 14.336-72.192-.512-2.56-1.024-5.632-1.536-7.68 16.384-17.408 140.288-141.824 158.72-159.232l6.656 1.536c18.432 4.608 47.104 11.776 72.192-13.312 24.064-25.6 33.792-61.44 26.624-95.744z"/></symbol><symbol viewBox="0 0 300 300" id="telegram" xmlns="http://www.w3.org/2000/svg"><path d="M5.299 144.645l69.126 25.8 26.756 86.047c1.712 5.511 8.451 7.548 12.924 3.891l38.532-31.412a11.496 11.496 0 0 1 14.013-.391l69.498 50.457c4.785 3.478 11.564.856 12.764-4.926L299.823 29.22c1.31-6.316-4.896-11.585-10.91-9.259L5.218 129.402c-7.001 2.7-6.94 12.612.081 15.243zm91.57 12.066l135.098-83.207c2.428-1.491 4.926 1.792 2.841 3.726L123.313 180.87a23.112 23.112 0 0 0-7.163 13.829l-3.798 28.146c-.503 3.758-5.782 4.131-6.819.494l-14.607-51.325c-1.673-5.854.765-12.107 5.943-15.303z"/></symbol><symbol viewBox="0 0 310 310" id="twitter" xmlns="http://www.w3.org/2000/svg"><path d="M302.973 57.388a117.512 117.512 0 0 1-14.993 5.463 66.276 66.276 0 0 0 13.494-23.73 5 5 0 0 0-7.313-5.824 117.994 117.994 0 0 1-34.878 13.783c-12.381-12.098-29.197-18.983-46.581-18.983-36.695 0-66.549 29.853-66.549 66.547 0 2.89.183 5.764.545 8.598C101.163 99.244 58.83 76.863 29.76 41.204a5.001 5.001 0 0 0-8.196.642c-5.896 10.117-9.013 21.688-9.013 33.461 0 16.035 5.725 31.249 15.838 43.137a56.37 56.37 0 0 1-8.907-3.977 5 5 0 0 0-7.427 4.257c-.007.295-.007.59-.007.889 0 23.935 12.882 45.484 32.577 57.229a57.372 57.372 0 0 1-5.063-.735 4.998 4.998 0 0 0-5.699 6.437c7.29 22.76 26.059 39.501 48.749 44.605-18.819 11.787-40.34 17.961-62.932 17.961a120.4 120.4 0 0 1-14.095-.826 5 5 0 0 0-3.286 9.174c29.023 18.609 62.582 28.445 97.047 28.445 67.754 0 110.139-31.95 133.764-58.753 29.46-33.421 46.356-77.658 46.356-121.367 0-1.826-.028-3.67-.084-5.508 11.623-8.757 21.63-19.355 29.773-31.536a5 5 0 0 0-6.182-7.351z"/></symbol><symbol viewBox="0 0 373.20594 136.51692" id="vaz_2108" xmlns="http://www.w3.org/2000/svg"><path d="M61.583 136.003c-11.308-2.464-21.85-15.139-21.925-26.362-.027-4.013-.301-4.29-3.465-3.496-1.89.474-4.74.186-6.334-.641-1.593-.828-6.197-1.961-10.23-2.52-7.091-.981-7.356-1.166-8-5.61-.515-3.549-1.426-4.767-4-5.35-2.144-.485-4.22-2.557-5.818-5.809-2.44-4.965-2.438-5.106.15-7.968 1.448-1.603 4.16-6.313 6.025-10.467 1.866-4.155 4.925-8.559 6.8-9.787 5.135-3.365 19.552-6.731 54.176-12.652 18.09-3.093 33.755-6.487 37.063-8.029 4.05-1.889 6.418-2.304 8.077-1.416 1.883 1.008 6.151-1.643 21.604-13.423 10.59-8.074 21.056-15.648 23.256-16.83 7.4-3.98 29.876-5.512 81.865-5.579L290.692 0l11.468 6.19c24.219 13.074 61.271 35.372 62.02 37.323.431 1.123 1.171 7.08 1.644 13.239.752 9.783 1.257 11.456 4 13.253 7.12 4.666 2.338 16.513-8.192 20.291l-6.67 2.394-.392 9.655c-.502 12.379-2.941 12.646-2.941.322 0-5.134-.45-9.324-1-9.313-.55.012-4.324.804-8.387 1.76-4.063.957-8.118 1.496-9.01 1.198-1.223-.407-1.292.333-.28 2.993 2.1 5.523 1.592 13.143-1.396 20.949-3.027 7.912-9.26 12.939-19.36 15.616-8.012 2.124-19.993-1.188-24.985-6.906-5.264-6.03-8.852-14.09-8.886-19.964-.03-5.062-1.049-6.114-3.524-3.639-.906.907-31.08 1.24-90.267 1L95.628 106v3.71c.001 8.191-7.846 20.695-15.066 24.006-5.32 2.44-13.664 3.445-18.979 2.287z"/></symbol><symbol viewBox="0 0 114.18768 41.25872" id="vaz_2109" xmlns="http://www.w3.org/2000/svg"><path d="M91.443 41.034a25.073 25.073 0 0 0-.866-.374c-1.47-.591-2.221-1.04-3.105-1.856-.534-.493-1.057-1.104-1.163-1.357-.106-.253-.404-.707-.662-1.009-.259-.302-.472-.643-.474-.758-.003-.116-.093-.326-.2-.469a1.062 1.062 0 0 1-.196-.54c0-.154-.072-.353-.16-.44-.196-.197-2.188-.22-2.307-.027-.054.087-4.12.139-11.708.15-23.664.035-38.733.17-38.912.35-.258.258-.74.203-.817-.094-.037-.144-.229-.301-.426-.35-.296-.075-.447-.003-.88.42-.288.281-.524.64-.524.797 0 .334-.447 1.21-1.13 2.217-.495.727-2.152 2.173-2.655 2.317-.155.045-.53.194-.836.332-1.137.514-2.29.632-4.72.483-1.643-.102-3.815-.84-4.607-1.564-.543-.498-1.785-2.03-1.785-2.203 0-.056-.082-.196-.181-.312-.324-.374-.632-1.518-.705-2.61-.039-.587-.084-1.08-.1-1.096-.015-.016-.46-.103-.99-.194-.919-.158-.969-.153-1.155.114-.165.235-.314.273-.955.244-.518-.023-.81-.102-.918-.25-.087-.12-.245-.218-.35-.218a.523.523 0 0 1-.32-.124c-.069-.068-1.078-.214-2.243-.324-1.164-.11-2.18-.262-2.256-.338-.097-.097-.071-.421.084-1.063.368-1.524.338-1.575-1.11-1.892-.943-.207-1.161-.325-1.278-.692-.052-.165-.169-.36-.259-.433-.165-.136-.38-1.124-.536-2.474-.084-.727-.075-.752.507-1.467.326-.4.75-.812.944-.915.274-.147.318-.228.201-.369-.114-.137-.097-.24.068-.422.12-.133.219-.311.219-.396 0-.086.124-.231.275-.323.152-.093.573-.745.937-1.45.364-.706.848-1.502 1.077-1.77 1.098-1.286 3.23-2.378 6.177-3.165 1.927-.514 7.14-1.572 9.067-1.84 1.1-.154 2.3-.336 2.667-.406a26.8 26.8 0 0 1 1.133-.19 168.05 168.05 0 0 0 2.467-.393c1.1-.182 2.3-.371 2.666-.42.367-.05.771-.184.898-.298.182-.163.271-.173.424-.046.144.12.323.125.703.02.28-.078.698-.142.93-.143.358 0 .41-.041.35-.273-.08-.303.273-.65.666-.657.216-.003 1.278-.404 2.296-.865.416-.189 1.607-.547 2.223-.668.196-.039.62-.271.94-.516.321-.245.88-.614 1.244-.82.88-.5 2.648-1.695 2.704-1.828a.197.197 0 0 1 .17-.107c.112 0 1.154-.63 1.32-.799.036-.037 1.122-.77 2.412-1.63 1.29-.859 2.426-1.658 2.524-1.775.563-.679 1.875-.938 6.13-1.213C58.143.01 71.708-.087 77.11.091c1.467.049 4.617.133 7 .188 2.974.069 4.46.153 4.737.268.221.093.698.443 1.059.78.36.335.68.61.71.61.03 0 .322.18.648.4.326.22.611.4.634.4.023 0 .478.24 1.012.533.534.294 1.043.534 1.132.534.088 0 .298.118.465.263.167.146.356.232.42.193.064-.04.116-.02.116.043 0 .064.255.226.567.36.312.134.657.32.767.412.11.092.72.443 1.357.78.861.455 1.255.594 1.534.54.435-.081 1.866.607 1.805.869-.02.088.022.124.092.08.071-.044.19.027.266.157.076.13.14.188.142.128.002-.059.18-.003.397.125.216.127.362.28.326.34-.037.058.016.075.116.037.1-.039.335.067.522.234.187.168.393.316.458.328.065.013.643.269 1.285.569.642.3 1.602.718 2.134.93 1.685.671 1.716.691 1.672 1.07-.031.269-.103.333-.339.3-.509-.07-.212.33.749 1.01.486.345.904.673.928.73.025.055.1.102.169.102.068 0 .418.277.778.617.627.592.663.666.863 1.767.33 1.811.416 3.09.219 3.212-.132.081-.124.171.038.42.132.202.241.817.3 1.693l.095 1.376.487.392c.267.215.712.687.988 1.048.564.74.564.779.052 2.708-.174.654-.342 1.033-.458 1.033-.101 0-.217.105-.259.234-.246.768-.376.932-1.014 1.291-.381.214-.62.414-.53.443.088.03.161.23.161.443 0 .326-.054.39-.333.39-.184 0-.334.05-.334.114 0 .063-.735.155-1.633.206-1.586.088-4.505.707-4.827 1.022-.07.068-.252.124-.406.124-.154 0-.35.07-.434.154-.095.095-.536.143-1.144.125l-.989-.029-.063 1.175c-.039.724-.178 1.507-.363 2.042-.166.476-.321.972-.347 1.102-.188.964-3.46 4.139-4.44 4.308a9.147 9.147 0 0 0-1.045.265c-.798.26-3.303.231-3.909-.045z"/></symbol><symbol viewBox="0 0 374.62339 126.83253" id="vaz_2110" xmlns="http://www.w3.org/2000/svg"><path d="M289.586 126.039c-8.39-1.748-16.809-9.094-19.07-16.637l-1.446-4.83H86.747l-.808 3.333c-3.634 14.979-22.528 23.203-36.698 15.974-5.437-2.774-11.158-10.052-12.614-16.047-.821-3.386-.9-3.404-12.436-2.852-13.672.654-20.8-1.555-22.907-7.097-1.71-4.499-1.712-20.785-.003-25.281 1.681-4.423 7.81-12.205 11.582-14.706 2.952-1.958 79.392-20.657 84.444-20.657 1.519 0 12.187-5.927 23.706-13.17C156.051 2.04 158.548 1.403 214.258.3c30.903-.614 38.219-.375 49.216 1.605 14.247 2.565 16.338 3.597 41.676 20.573 17.78 11.911 19.27 12.294 31.475 8.095 4.725-1.626 11.224-2.667 16.645-2.667h8.894l-.559 3.803c-.341 2.328.71 6.336 2.71 10.333 1.798 3.592 3.616 9.225 4.04 12.517.481 3.75 1.797 6.82 3.52 8.214 2.255 1.827 2.75 3.748 2.748 10.68-.004 16.763-6.275 22.055-30.664 25.873-7.7 1.205-15.056 2.753-16.346 3.44-1.868.993-2.609.557-3.634-2.14-1.78-4.684-4.02-4.243-4.02.792 0 11.605-5.633 19.546-16.79 23.67-5.549 2.05-7.614 2.195-13.583.952z"/></symbol><symbol viewBox="0 0 1091.3656 402.66562" id="vaz_2111" xmlns="http://www.w3.org/2000/svg"><path d="M195.157 401.855c-22.712-1.327-34.452-5.829-48.324-18.53-9.255-8.474-20.237-24.281-23.124-33.284-1.432-4.465-2.73-6.1-5.4-6.803-1.932-.51-16.632-2.498-32.666-4.418-50.41-6.038-57.392-8.365-65.23-21.74-1.995-3.403-4.349-5.747-5.772-5.747-3.943 0-7.267-4.695-6.235-8.806.743-2.961.096-4.336-3.754-7.967L0 290.172l.793-15.04c.437-8.27 1.447-15.862 2.245-16.868.799-1.007 3.075-3.728 5.059-6.047 7.13-8.339 9.981-12.418 17.751-25.397 13.983-23.355 19.42-27.768 47.309-38.4 27.31-10.41 62.792-18.987 114.897-27.773 40.003-6.745 61.352-10.644 62.64-11.44 2.67-1.65 21.5-5.528 23.853-4.912 1.787.467 2.712-.236 3.28-2.49.434-1.726 2.712-4.375 5.06-5.886 3.619-2.328 4.755-2.499 7.45-1.12 1.75.894 3.664 2.408 4.255 3.364.855 1.384 2.089 1.205 6.047-.879 8.045-4.235 14.204-7.75 19.185-10.946 2.566-1.648 5.676-2.998 6.91-3 1.234-.003 2.624-1.204 3.089-2.669.465-1.465 2.455-3.057 4.423-3.538 1.968-.482 3.878-1.285 4.244-1.786.367-.501 8.167-5.59 17.334-11.31 9.166-5.72 18.799-11.817 21.405-13.55 2.606-1.734 5.456-3.152 6.333-3.152.877 0 1.595-.469 1.595-1.041 0-.573 1.65-1.76 3.667-2.638 2.016-.879 7.866-4.318 13-7.643 5.133-3.324 15.033-9.431 22-13.57 6.966-4.14 12.966-7.922 13.333-8.405.367-.484 3.967-3.015 8-5.627 19.768-12.798 55.482-18.813 141.164-23.778l23.165-1.342 9.923-9.267c6.792-6.343 11.264-9.47 14.17-9.91C649.042 1.778 719.11.002 795.823 0c84.24 0 87.475.091 91.333 2.592 5.085 3.295 18.16 13.927 20.283 16.492 1.335 1.614 5.042 1.834 21.333 1.267 22.945-.8 43.247.652 53.683 3.837 12.165 3.713 13.718 6.434 6.034 10.571-2.566 1.383-4.661 3.127-4.654 3.877.01.75 3.095 4.963 6.865 9.363 15.771 18.411 39.067 51.517 46.49 66.066 2.122 4.16 3.344 5.27 5.05 4.584 1.237-.498 3-1.212 3.916-1.587 2.372-.97 2.063 1.684-.494 4.24-1.991 1.992-1.832 2.755 2.038 9.762 2.308 4.181 5.146 9.852 6.305 12.602 1.159 2.75 2.878 5 3.82 5 2.36 0 3.785 4.229 1.832 5.436-1.195.739-1.041 2.137.621 5.641 1.216 2.563 2.211 5.343 2.211 6.179 0 .835 1.17 3.144 2.601 5.131 3.182 4.419 8.281 24.084 8.371 32.28.04 3.655 1.381 8.606 3.432 12.666 1.851 3.667 3.793 8.767 4.315 11.334 3.986 19.61 6.765 31.122 8.124 33.661 2.233 4.173 2.781 20.68.863 25.984-1.24 3.43-1.242 5.367-.01 8.64 1.31 3.471 1.242 4.605-.387 6.405-1.088 1.202-1.979 3.998-1.979 6.212v4.026l-7.667-1.172a801.982 801.982 0 0 1-15.186-2.503c-5.507-.974-8.462-.9-11.036.272-2.59 1.18-3.91 1.21-5.006.113-1.096-1.096-3.182-.63-7.91 1.766-6.287 3.185-26.597 7.63-65.08 14.242l-17.886 3.074-3.114 9.233c-1.713 5.078-3.115 11.909-3.115 15.18 0 5.777-.073 5.88-2.556 3.633-2.798-2.532-4.494-11.565-4.389-23.377.071-8.031-3.387-14.723-7.608-14.723-2.076 0-2.475 1.791-3.196 14.334-.517 8.989-1.835 17.27-3.537 22.209-1.493 4.331-2.714 8.788-2.714 9.905 0 1.116-1.95 3.913-4.333 6.216-2.383 2.302-6.18 6.244-8.438 8.761-3.777 4.21-12.922 12.242-16.898 14.843-.915.599-6.637 2.627-12.715 4.507-15.934 4.928-36.882 5.203-50.949.668-5.5-1.773-12.368-4.923-15.263-7-2.894-2.077-5.936-3.776-6.76-3.776-.823 0-3.855-2.012-6.737-4.47-2.882-2.46-7.147-5.453-9.479-6.653-2.331-1.2-4.617-3.372-5.079-4.828-.462-1.455-2.538-3.855-4.613-5.333-2.075-1.478-5.88-4.794-8.455-7.368-2.574-2.575-5.64-4.681-6.814-4.681-1.173 0-2.133-.9-2.133-2s-.6-2-1.334-2c-.733 0-1.333-1.2-1.333-2.667 0-1.467-.564-2.667-1.253-2.667s-1.439-2.25-1.666-5l-.414-5-25-.362c-16.374-.238-25 .107-25 1 0 .915-31.933 1.362-97.334 1.362-64 0-97.333.457-97.333 1.334 0 .873-25.778 1.333-74.667 1.333s-74.666.46-74.666 1.333c0 .855-12.445 1.334-34.667 1.334H299.82v4c0 2.2-.6 4-1.333 4s-1.333 1.07-1.333 2.379-1.674 3.368-3.72 4.577c-2.046 1.208-8.796 6.734-15 12.28-6.204 5.546-12.48 10.112-13.947 10.149-5.987.148-16.208 3.773-19.35 6.863-7.76 7.632-14.785 10.7-33.983 14.843-.734.159-7.934-.097-16-.569z"/></symbol><symbol viewBox="0 0 243.73883 86.439651" id="vaz_2112" xmlns="http://www.w3.org/2000/svg"><path d="M37.62 85.084c-3.915-1.132-6.975-4.022-10.44-9.857-.914-1.539-4.801-2.882-11.93-4.122-5.815-1.01-11.439-2.704-12.497-3.762-4.79-4.79-3.052-19.098 3.062-25.212 3.26-3.259 25.582-9.905 41.387-12.323 14.225-2.176 15.169-2.538 31.333-12.023 9.167-5.378 19.367-10.96 22.667-12.402 11.992-5.244 36.282-6.71 69.02-4.163 14.255 1.108 18.136 1.968 30.24 6.7 13.303 5.202 14.307 5.39 23.979 4.514 10.064-.912 12.013-.244 7.952 2.726-1.935 1.415-1.817 2.202 1.222 8.147 1.85 3.619 3.768 9.134 4.26 12.254.547 3.457 1.962 6.42 3.623 7.584 2.382 1.668 2.616 2.802 1.851 8.992-.48 3.896-.96 7.847-1.066 8.78-.106.934-1.742 2.044-3.637 2.466-1.894.423-7.194 1.99-11.777 3.483-6.609 2.153-8.366 3.298-8.491 5.535-.11 1.953-.421 1.59-1.014-1.18-1.088-5.09-3.241-4.71-4.362.772-1.41 6.897-3.799 10.155-9.241 12.61-10.105 4.556-20.569.322-24.222-9.802l-1.67-4.628-56.586.691-56.586.691-3.93 4.899c-4.127 5.144-12.464 10.184-16.512 9.98-1.313-.066-4.299-.674-6.636-1.35z"/></symbol><symbol viewBox="0 0 1156 778.66669" id="vaz_2113" xmlns="http://www.w3.org/2000/svg"><path d="M177.736 586.094c-1.794-.855-5.961-2.635-9.261-3.955-3.3-1.32-7.8-3.618-10-5.107-5.6-3.789-23.286-21.085-23.312-22.798-.012-.778-1.222-2.703-2.688-4.277-1.467-1.574-2.667-4.052-2.667-5.506 0-1.454-.6-3.015-1.333-3.468-.734-.453-1.334-3.189-1.334-6.079 0-2.89-.467-5.254-1.038-5.254-.867 0-2.836-8.905-4.569-20.667-.905-6.141-8.206-8.217-11.726-3.333-1.82 2.526-3.452 2.666-30.961 2.666-16.892 0-29.04-.515-29.04-1.232 0-.692-8.042-1.264-18.322-1.303-11.243-.043-18.499-.597-18.778-1.434-.25-.75-1.84-1.364-3.534-1.364-3.96 0-4.698-2.14-4.698-13.622 0-5.172-.704-13.223-1.564-17.89-1.496-8.116-1.733-8.488-5.429-8.488-4.78 0-7.674-2.73-7.674-7.238 0-1.886-.6-3.429-1.333-3.429-.796 0-1.334-5.11-1.334-12.666 0-11.778.187-12.667 2.667-12.667 2.052 0 2.667-.889 2.667-3.855 0-2.944.747-4.043 3.157-4.648 4.785-1.201 12.386-11.445 16.273-21.932 2.926-7.894 4.2-9.719 8.073-11.556 3.241-1.538 4.828-3.33 5.376-6.074.561-2.805 2.75-5.2 7.842-8.58 3.885-2.578 7.648-4.688 8.362-4.688.714 0 1.622-.844 2.017-1.875.396-1.03 2.71-2.269 5.143-2.751 2.433-.483 7.423-1.964 11.09-3.292 16.173-5.858 28.448-9.536 34.004-10.19 3.298-.39 10.496-1.838 15.996-3.22 16.302-4.099 88.212-18.215 112.667-22.117 12.466-1.99 23.613-4.428 24.771-5.42 1.309-1.12 5.441-1.802 10.922-1.802 4.849 0 9.106-.469 9.46-1.042.354-.574 5.55-1.185 11.547-1.36 13.81-.4 16.033-1.488 15.077-7.38-.64-3.94-.288-4.622 3.084-5.988 2.093-.848 6.523-1.755 9.845-2.015 3.322-.26 7.332-1.165 8.912-2.01 1.58-.846 4.127-1.538 5.66-1.538 4.56 0 20.79-8.823 41.388-22.498 10.634-7.06 19.538-13.298 19.787-13.864.25-.565 2.35-1.983 4.667-3.151 9.495-4.787 27.546-16.839 27.546-18.392 0-.917 1.446-2.326 3.212-3.13 1.767-.806 5.982-3.579 9.368-6.163s10.099-6.58 14.918-8.88c4.82-2.301 9.904-5.324 11.3-6.72 1.394-1.394 3.355-2.536 4.356-2.536 1 0 3.42-1.259 5.377-2.798 2.11-1.66 6.115-3.004 9.847-3.305 8.326-.67 24.114-2.933 28.289-4.054 1.833-.492 7.533-1.116 12.667-1.388 19.837-1.048 199.8.186 201.738 1.384.513.317 27.159.958 59.212 1.425 62.477.91 66.67 1.354 75.834 8.021 2.502 1.82 13.549 7.848 24.549 13.395s23.9 12.133 28.667 14.636c9.041 4.747 12.61 5.6 14.002 3.347.5-.808 1.717-.878 3.078-.176 1.24.638 7.353 1.929 13.586 2.869 6.234.94 12.834 2.667 14.667 3.838 1.833 1.172 4.833 2.904 6.667 3.85 1.833.946 5.733 3.177 8.666 4.957 2.934 1.78 11.934 6.535 20 10.568 8.067 4.033 16.167 8.225 18 9.316 9.695 5.768 12.507 6.31 26.889 5.177 7.846-.618 15.589-.578 17.825.091 21.302 6.381 27.455 15.054 17 23.961-2.724 2.32-7.814 7.22-11.31 10.886-7.24 7.593-6.96 5.652-4.992 34.667 1.448 21.336 2.429 32.055 3.32 36.27.433 2.047 3.234 4.183 9.253 7.056 4.998 2.385 10.046 5.973 11.99 8.523 2.954 3.873 3.359 5.71 3.359 15.272 0 11.038-3.81 25.939-7.382 28.879-3.652 3.005-4.13 6.117-2.17 14.139 1.846 7.553 1.809 8.22-.64 11.604-2.631 3.637-14.305 10.142-20.453 11.398-31.36 6.405-31.09 6.31-32.525 11.571-.694 2.542-1.497 13.021-1.784 23.288-.288 10.267-1.03 19.176-1.65 19.8-.62.622-2.323.752-3.784.289-3.365-1.069-4.35-7.157-4.48-27.72-.055-8.45-.542-16.08-1.084-16.957-.76-1.229-3.547-1.243-12.177-.061-11.984 1.64-14.538 2.845-14.538 6.854 0 4.071-3.89 4.466-10.175 1.033-5.49-2.999-6.89-5.59-5.95-11.004.105-.604-.491-.677-1.324-.162-.834.515-1.99.17-2.568-.766-.578-.936-.725 5.861-.326 15.105.613 14.182.384 17.328-1.466 20.15-1.205 1.84-2.191 4.133-2.191 5.096 0 2.638-9.086 21.082-12.77 25.92-1.776 2.335-3.23 4.76-3.23 5.39 0 1.654-11.163 12.366-12.887 12.366-.8 0-2.155.846-3.012 1.88-.858 1.032-5.207 3.745-9.666 6.026-12.926 6.616-37.649 8.322-55.768 3.85-3.3-.816-6.57-1.994-7.267-2.619-.697-.625-2.376-1.137-3.73-1.137-3.394 0-16.463-8.443-23.427-15.135-7.127-6.847-16.691-24.091-22.217-40.054l-4.179-12.072-6.59-2.64c-6.211-2.488-9.427-2.62-55.924-2.306-66.404.45-214.075 2.887-252 4.159-16.866.565-34.866 1.702-40 2.526-5.133.823-32.133 1.846-60 2.271-86.555 1.323-80.9.978-87.827 5.36-4.297 2.718-7.007 5.811-9.434 10.769-1.873 3.825-3.405 7.519-3.405 8.209 0 .69-.842 1.952-1.871 2.806-1.03.854-3.45 4.778-5.378 8.72-3.686 7.534-12.23 16.894-18.418 20.177-2.017 1.07-3.667 2.436-3.667 3.035 0 1.071-8.774 5.754-13.996 7.47-9.35 3.072-50.324 4.909-55.41 2.483z"/></symbol><symbol viewBox="0 0 1156 778.66669" id="vaz_2114" xmlns="http://www.w3.org/2000/svg"><path d="M177.736 586.094c-1.794-.855-5.961-2.635-9.261-3.955-3.3-1.32-7.8-3.618-10-5.107-5.6-3.789-23.286-21.085-23.312-22.798-.012-.778-1.222-2.703-2.688-4.277-1.467-1.574-2.667-4.052-2.667-5.506 0-1.454-.6-3.015-1.333-3.468-.734-.453-1.334-3.189-1.334-6.079 0-2.89-.467-5.254-1.038-5.254-.867 0-2.836-8.905-4.569-20.667-.905-6.141-8.206-8.217-11.726-3.333-1.82 2.526-3.452 2.666-30.961 2.666-16.892 0-29.04-.515-29.04-1.232 0-.692-8.042-1.264-18.322-1.303-11.243-.043-18.499-.597-18.778-1.434-.25-.75-1.84-1.364-3.534-1.364-3.96 0-4.698-2.14-4.698-13.622 0-5.172-.704-13.223-1.564-17.89-1.496-8.116-1.733-8.488-5.429-8.488-4.78 0-7.674-2.73-7.674-7.238 0-1.886-.6-3.429-1.333-3.429-.796 0-1.334-5.11-1.334-12.666 0-11.778.187-12.667 2.667-12.667 2.052 0 2.667-.889 2.667-3.855 0-2.944.747-4.043 3.157-4.648 4.785-1.201 12.386-11.445 16.273-21.932 2.926-7.894 4.2-9.719 8.073-11.556 3.241-1.538 4.828-3.33 5.376-6.074.561-2.805 2.75-5.2 7.842-8.58 3.885-2.578 7.648-4.688 8.362-4.688.714 0 1.622-.844 2.017-1.875.396-1.03 2.71-2.269 5.143-2.751 2.433-.483 7.423-1.964 11.09-3.292 16.173-5.858 28.448-9.536 34.004-10.19 3.298-.39 10.496-1.838 15.996-3.22 16.302-4.099 88.212-18.215 112.667-22.117 12.466-1.99 23.613-4.428 24.771-5.42 1.309-1.12 5.441-1.802 10.922-1.802 4.849 0 9.106-.469 9.46-1.042.354-.574 5.55-1.185 11.547-1.36 13.81-.4 16.033-1.488 15.077-7.38-.64-3.94-.288-4.622 3.084-5.988 2.093-.848 6.523-1.755 9.845-2.015 3.322-.26 7.332-1.165 8.912-2.01 1.58-.846 4.127-1.538 5.66-1.538 4.56 0 20.79-8.823 41.388-22.498 10.634-7.06 19.538-13.298 19.787-13.864.25-.565 2.35-1.983 4.667-3.151 9.495-4.787 27.546-16.839 27.546-18.392 0-.917 1.446-2.326 3.212-3.13 1.767-.806 5.982-3.579 9.368-6.163s10.099-6.58 14.918-8.88c4.82-2.301 9.904-5.324 11.3-6.72 1.394-1.394 3.355-2.536 4.356-2.536 1 0 3.42-1.259 5.377-2.798 2.11-1.66 6.115-3.004 9.847-3.305 8.326-.67 24.114-2.933 28.289-4.054 1.833-.492 7.533-1.116 12.667-1.388 19.837-1.048 199.8.186 201.738 1.384.513.317 27.159.958 59.212 1.425 62.477.91 66.67 1.354 75.834 8.021 2.502 1.82 13.549 7.848 24.549 13.395s23.9 12.133 28.667 14.636c9.041 4.747 12.61 5.6 14.002 3.347.5-.808 1.717-.878 3.078-.176 1.24.638 7.353 1.929 13.586 2.869 6.234.94 12.834 2.667 14.667 3.838 1.833 1.172 4.833 2.904 6.667 3.85 1.833.946 5.733 3.177 8.666 4.957 2.934 1.78 11.934 6.535 20 10.568 8.067 4.033 16.167 8.225 18 9.316 9.695 5.768 12.507 6.31 26.889 5.177 7.846-.618 15.589-.578 17.825.091 21.302 6.381 27.455 15.054 17 23.961-2.724 2.32-7.814 7.22-11.31 10.886-7.24 7.593-6.96 5.652-4.992 34.667 1.448 21.336 2.429 32.055 3.32 36.27.433 2.047 3.234 4.183 9.253 7.056 4.998 2.385 10.046 5.973 11.99 8.523 2.954 3.873 3.359 5.71 3.359 15.272 0 11.038-3.81 25.939-7.382 28.879-3.652 3.005-4.13 6.117-2.17 14.139 1.846 7.553 1.809 8.22-.64 11.604-2.631 3.637-14.305 10.142-20.453 11.398-31.36 6.405-31.09 6.31-32.525 11.571-.694 2.542-1.497 13.021-1.784 23.288-.288 10.267-1.03 19.176-1.65 19.8-.62.622-2.323.752-3.784.289-3.365-1.069-4.35-7.157-4.48-27.72-.055-8.45-.542-16.08-1.084-16.957-.76-1.229-3.547-1.243-12.177-.061-11.984 1.64-14.538 2.845-14.538 6.854 0 4.071-3.89 4.466-10.175 1.033-5.49-2.999-6.89-5.59-5.95-11.004.105-.604-.491-.677-1.324-.162-.834.515-1.99.17-2.568-.766-.578-.936-.725 5.861-.326 15.105.613 14.182.384 17.328-1.466 20.15-1.205 1.84-2.191 4.133-2.191 5.096 0 2.638-9.086 21.082-12.77 25.92-1.776 2.335-3.23 4.76-3.23 5.39 0 1.654-11.163 12.366-12.887 12.366-.8 0-2.155.846-3.012 1.88-.858 1.032-5.207 3.745-9.666 6.026-12.926 6.616-37.649 8.322-55.768 3.85-3.3-.816-6.57-1.994-7.267-2.619-.697-.625-2.376-1.137-3.73-1.137-3.394 0-16.463-8.443-23.427-15.135-7.127-6.847-16.691-24.091-22.217-40.054l-4.179-12.072-6.59-2.64c-6.211-2.488-9.427-2.62-55.924-2.306-66.404.45-214.075 2.887-252 4.159-16.866.565-34.866 1.702-40 2.526-5.133.823-32.133 1.846-60 2.271-86.555 1.323-80.9.978-87.827 5.36-4.297 2.718-7.007 5.811-9.434 10.769-1.873 3.825-3.405 7.519-3.405 8.209 0 .69-.842 1.952-1.871 2.806-1.03.854-3.45 4.778-5.378 8.72-3.686 7.534-12.23 16.894-18.418 20.177-2.017 1.07-3.667 2.436-3.667 3.035 0 1.071-8.774 5.754-13.996 7.47-9.35 3.072-50.324 4.909-55.41 2.483z"/></symbol><symbol viewBox="0 0 570.83734 190.02348" id="vaz_2115" xmlns="http://www.w3.org/2000/svg"><path d="M423.21 186.927c-9.83-5.28-17.164-13.452-20.236-22.55-4.653-13.78-2.795-13.114-36.677-13.135-68.781-.04-189.112 4.183-192.201 6.747-1.724 1.43-5.178 1.164-10.278-.793-1.26-.483-2.498.622-3.554 3.171-2.202 5.317-7.753 10.25-13.653 12.134-2.692.859-5.683 2.513-6.647 3.675-5.717 6.888-21.338 12.417-35.081 12.417-10.822 0-21.186-4.404-28.78-12.229-4.565-4.704-5.966-7.788-9.978-21.968-.546-1.93-13.369-3.941-37.288-5.846-19.622-1.562-24.128-3.119-20.765-7.172 2.249-2.709-.352-10.702-4.717-14.497-4.918-4.276-4.384-11.61 1.305-17.95 2.47-2.753 4.938-6.504 5.486-8.338 3.858-12.917 12.469-18.795 36.445-24.876 19.485-4.942 59.906-12.11 89.913-15.943 17.311-2.212 18.333-2.507 18.333-5.286 0-3.368 2.29-4.561 8.759-4.561 3.65 0 11.188-4.423 38.436-22.55 31.65-21.054 34.588-22.707 44.35-24.954C255.835.246 264.502.014 336.837 0c65.486-.012 80.605.318 83.334 1.822 1.833 1.01 15.799 10.748 31.035 21.638 15.236 10.89 28.466 19.8 29.4 19.8.934 0 2.345.647 3.135 1.437.79.79 8.108 2.042 16.26 2.78 13.88 1.258 15.757 1.124 29.521-2.104 8.084-1.895 18.057-3.446 22.162-3.446 7.147 0 7.422.127 6.469 3-1.315 3.963-1.237 6.95.635 24.269 1.208 11.173 1.212 15.912.017 20.178-1.784 6.372-.15 11.22 3.783 11.22 3.907 0 8.25 3.922 8.25 7.453 0 1.816-1.5 6.262-3.334 9.88-3.941 7.778-4.15 10.433-1 12.771 5.051 3.75-.56 5.618-27.667 9.214-14.3 1.897-26.744 3.705-27.653 4.018-1.223.421-1.433 3.186-.805 10.616 1.104 13.06-1.374 13.497-3.291.581-.773-5.206-1.684-9.745-2.025-10.086-.34-.34-2.781-.214-5.423.281l-4.803.901v7.349c0 6.38-.263 7.13-2 5.688-1.129-.937-2-3.844-2-6.677 0-5.405-2.623-8.07-9.648-9.8l-3.649-.898.833 7.964c1.676 16.034-7.998 31.732-23.017 37.352-10.338 3.868-24.661 3.746-32.145-.274z"/></symbol><symbol viewBox="0 0 922.59131 329.36786" id="vaz_granta" xmlns="http://www.w3.org/2000/svg"><path d="M712.546 327.643c-10.689-3.092-15.603-6.17-26.683-16.718-2.475-2.356-6.082-4.712-8.015-5.235-1.934-.523-5.581-2.26-8.105-3.862-4.63-2.936-16.153-15.45-18.04-19.59-.903-1.982-2.174-2.36-11.18-3.319-6.186-.659-13.289-.763-18.16-.266-4.4.45-27.35.85-51 .893-90.098.158-304.577 1.263-317.244 1.635-14.763.432-15.435.682-20.418 7.597-8.054 11.175-22.702 21.912-29.894 21.912-1.642 0-6.276 2.306-11.59 5.768-14.829 9.662-21.557 11.61-40.354 11.678-15.692.058-23.345-1.502-29.5-6.015-1.65-1.21-3.96-2.49-5.132-2.845-1.172-.355-6.257-4.91-11.299-10.122-7.334-7.58-9.973-11.157-13.204-17.89l-4.037-8.413-12.164.07c-12.07.068-22.472-.864-42.664-3.822-8.438-1.236-11.3-2.102-14.576-4.41-2.242-1.581-5.305-3.182-6.807-3.56-3.799-.953-6.37-5.004-4.786-7.54.954-1.528.795-3.074-.807-7.83-1.098-3.26-3.185-11.459-4.637-18.22-2.106-9.803-2.53-13.923-2.097-20.322.679-10.024 1.92-13.488 5.743-16.027 2.437-1.62 3.58-3.772 6.002-11.302 1.645-5.116 3.178-10.741 3.406-12.5.6-4.607 1.535-6.641 5.375-11.676 8.067-10.578 14.388-16.853 19.982-19.834 11.584-6.174 60.694-19.467 100.24-27.134 11.804-2.288 22.587-4.662 23.962-5.275 1.375-.613 4.75-1.228 7.5-1.367 2.75-.14 12.127-1.817 20.838-3.73 12.933-2.838 16.335-3.953 18.554-6.079 1.926-1.845 3.795-2.603 6.413-2.603 2.983 0 3.695-.372 3.695-1.929 0-5.216 7.426-6.889 10.911-2.458l2.056 2.614 27.267-16.024c39.71-23.337 56.986-32.859 87.614-48.29 15.04-7.579 28.116-14.475 29.055-15.326 4.03-3.647 43.211-11.709 73.097-15.04C502.505-2.41 604.2-.412 655.107 7.227c21.728 3.261 66.365 12.667 71.256 15.016 1.65.792 9.975 3.886 18.5 6.876s30.8 11.808 49.5 19.594c57.012 23.74 52.434 22.152 64.5 22.384 12.952.25 18.508 2.155 17.756 6.09-.263 1.377-.12 2.503.318 2.503.894 0 19.292 2.888 22.494 3.531 1.46.293 3.698 3.585 7.611 11.192 7.376 14.338 8.677 22.454 6.853 42.777-.69 7.7-1.623 16.25-2.07 19-1.095 6.72.394 11.365 5.599 17.462 4.168 4.883 4.261 5.156 4.96 14.467.797 10.64-.798 32.307-3.13 42.5-.826 3.614-1.883 8.346-2.348 10.516-.555 2.59-1.996 4.92-4.194 6.782-9.951 8.43-15.267 10.757-24.599 10.767-5.65.006-6.111.396-3.667 3.097 1.455 1.608 1.41 1.842-.55 2.891-1.173.628-3.815 1.735-5.871 2.46-3.472 1.225-3.93 1.153-6.454-1.017-3.215-2.765-9.344-4.189-10.983-2.55-.697.697-5.304 1.125-12.107 1.125-14.011 0-28.364 1.814-30.863 3.902-1.052.879-2.578 2.863-3.391 4.41-2.209 4.198-5.479 3.33-6.82-1.812-1.002-3.84-1.192-3.988-4.715-3.695-3.473.29-3.708.533-4.334 4.5-.365 2.307-1.264 6.293-2 8.858-.734 2.564-1.115 4.883-.846 5.152.269.27-2.054 4.431-5.162 9.25-9.388 14.552-21.841 25.239-36.022 30.912-6.114 2.446-8.398 2.784-20.914 3.097-11.737.294-15.174.027-20.868-1.62z"/></symbol><symbol viewBox="0 0 832.31952 330.4613" id="vaz_kalina" xmlns="http://www.w3.org/2000/svg"><path d="M147.82 329.867c-5.05-.632-12.635-3.195-19.274-6.514-17.195-8.6-29.823-24.211-34.882-43.127l-1.26-4.708h-5.358c-2.947 0-6.224.463-7.282 1.03-2.097 1.122-24.28-.751-46.944-3.963-8.105-1.15-15.78-1.604-21.825-1.294-10.275.527-12.76-.366-9.877-3.55 1.304-1.441 1.458-2.549.733-5.274-1.02-3.833-.565-46.46.674-63.16l.795-10.712 4.5-4.741c2.475-2.607 5.012-5.212 5.64-5.789.626-.576 1.699-2.847 2.383-5.047 2.14-6.884 3.994-9.61 7.543-11.092 3.914-1.636 4.514-3.387 1.184-3.453-1.944-.039-1.577-.648 2.703-4.483 9.93-8.897 25.628-14.93 63.425-24.376 25.454-6.362 64.482-14.36 76.622-15.704 2.2-.243 11.65-1.322 21-2.398 9.35-1.075 19.56-2.218 22.691-2.54 5.508-.565 5.701-.685 6-3.734.262-2.672.811-3.252 3.623-3.822 2.75-.558 3.713-.242 5.655 1.852l2.34 2.524 8.345-5.99c35.251-25.297 92.742-60.61 131.083-80.517C384.82 10.582 413.33 4.71 455.32 1.312c21.68-1.754 126.165-1.748 156.5.01 48.431 2.805 69.213 4.701 90 8.213 20.104 3.397 21.009 3.749 25 9.721 2.638 3.948 5.347 6.33 11 9.67 10.314 6.093 21.05 14.948 38.161 31.469 15.69 15.149 30.018 30.952 35.69 39.36 1.951 2.895 4.904 8.638 6.561 12.763l3.013 7.5.113 22c.124 24.419.48 26.287 7.32 38.5l3.642 6.5v16.5c0 9.075-.11 21-.243 26.5-.134 5.5-.238 11.713-.231 13.807.006 2.093-1.041 5.918-2.328 8.5-2.056 4.126-2.813 4.768-6.268 5.311-5.936.934-23.55 5.91-26.755 7.558-1.553.799-3.293 2.798-3.867 4.443-.85 2.44-1.528 2.935-3.675 2.686-2.165-.25-2.722-.925-3.133-3.794-.308-2.142-1.124-3.607-2.116-3.797-1.285-.246-1.754.913-2.29 5.655-.371 3.28-1.586 9.04-2.7 12.798-1.933 6.527-2.628 9.482-2.811 11.959-.133 1.791-12.623 15.378-19.397 21.099-7.697 6.5-12.98 9.297-23.143 12.249-17.308 5.027-44.884.025-57.256-10.386-1.64-1.379-5.187-3.248-7.884-4.153-15.49-5.2-25.027-11.494-33.403-22.045-1.65-2.077-8.415-16.482-9.525-20.28l-.699-2.39-13.138.637c-19.055.922-216.155 4.3-307.138 5.263-59.296.628-60.028.66-62.37 2.758-3.244 2.905-7.333 9.486-6.615 10.647.771 1.248-7.562 10.117-14.515 15.45-3.025 2.32-8.65 5.467-12.5 6.994-3.85 1.528-8.68 4.288-10.732 6.135-3.921 3.528-12.524 7.846-21.768 10.924-5.42 1.806-20.353 2.776-28 1.82zm130-40.443c0-.498.9-.906 2-.906s2 .172 2 .383c0 .211-.9.619-2 .907-1.1.287-2 .115-2-.384z"/></symbol><symbol viewBox="0 0 968.9436 379.3512" id="vaz_largus" xmlns="http://www.w3.org/2000/svg"><path d="M154.962 378.478c-8.478-.805-21.54-5.252-29.379-10.003-2.86-1.733-9.063-6.843-13.783-11.356-7.178-6.863-9.183-9.506-12.26-16.166-2.024-4.379-4.387-10.774-5.25-14.212l-1.571-6.25h-18.91c-14.673 0-19.728-.34-22.556-1.522-2.188-.915-11.262-2.136-22.717-3.057-20.147-1.621-22.667-2.336-24.81-7.038-.842-1.85-.856-3.615-.05-6.697.694-2.656.785-6.012.25-9.186-.465-2.75-.871-7.307-.904-10.127-.04-3.483-.588-5.566-1.705-6.493-1.449-1.202-1.569-3.152-1.001-16.27l.645-14.905 4.75-8.576c2.613-4.718 5.73-10.707 6.926-13.311 1.196-2.604 3.782-6.341 5.747-8.306 1.964-1.964 4.3-4.683 5.19-6.041.89-1.359 2.147-2.47 2.794-2.47.647 0 2.45-2.516 4.007-5.59 3.412-6.739 8.215-10.108 24.05-16.872 18.81-8.034 38.756-13.48 80.537-21.989 12.937-2.635 24.14-5.464 26.358-6.658 2.364-1.272 4.216-1.717 4.783-1.15.567.566 8.175-.506 19.642-2.768 13.656-2.694 20.29-3.56 24.532-3.204 5.13.431 5.994.234 7.327-1.669.831-1.186 5.519-4.17 10.417-6.63 8.5-4.269 9.1-4.421 13.173-3.35l4.268 1.12 26-16.442c14.3-9.044 41.975-26.482 61.5-38.75 19.525-12.27 36.85-23.31 38.5-24.533 4.5-3.338 16.363-8.296 45.08-18.84 28.042-10.297 40.69-13.981 63.92-18.62 9.765-1.949 17.858-4.24 23.187-6.566 17.124-7.473 36.089-10.467 80.313-12.68 34.222-1.712 271.03-1.744 282.886-.038 8.596 1.237 16.736 4.342 23.359 8.91 3.143 2.168 5.678 2.782 15.787 3.822 6.624.681 12.269 1.464 12.543 1.738.6.6 6.796 10.66 10.036 16.294 3.204 5.572 9.112 22.197 11.448 32.218 4.345 18.631 10.138 48.416 11.463 58.93.775 6.15 2.292 13.797 3.37 16.993 1.193 3.533 1.835 7.677 1.638 10.572-.178 2.618.131 5.042.687 5.385 1.571.972 4.578 8.485 4.949 12.366.318 3.328.167 3.516-3.066 3.825l-3.4.325.637 12.582c.442 8.731 1.074 13.07 2.064 14.176.784.876 2.568 5.192 3.963 9.592 2.233 7.044 2.619 10.476 3.225 28.697.535 16.049.995 20.814 2.05 21.218 2.105.808 1.644 6.956-.75 10-1.95 2.478-1.988 2.819-.5 4.463 2.093 2.312 2.009 5.651-.269 10.664-2.256 4.966-7.367 9.427-10.947 9.552-5.933.207-11.33.798-25.173 2.758-7.975 1.13-18.67 2.503-23.767 3.052-5.096.55-9.658 1.241-10.136 1.537-1.21.747-2.838-1.46-3.251-4.407-.841-6.002-10.987-6.606-11.67-.695-.177 1.542.137 4.12.699 5.732.625 1.794.654 2.93.073 2.93-.521 0-.951 2.137-.955 4.75-.038 23.634-13.603 47.217-34.13 59.334-13.357 7.885-39.279 11.167-54.62 6.915-3.97-1.1-8.01-2.012-8.98-2.028-6.008-.095-32.818-15.897-43.088-25.396-5.806-5.37-15.315-21.26-16.653-27.826l-.56-2.75-10.23.001c-5.628.001-49.607.669-97.732 1.485-48.125.815-130.925 2.151-184 2.968-53.075.817-115.664 1.784-139.088 2.15l-42.588.663-2.65 4.117c-7.304 11.348-9.099 13.548-15.867 19.441-4.019 3.5-10.457 8.163-14.307 10.362-3.85 2.2-9.392 5.496-12.316 7.323-7.757 4.85-24.591 11.216-32.875 12.433-3.956.582-7.556.99-8 .906-.445-.083-4.184-.47-8.309-.862zm164.75-48.649c.688-.277 1.813-.277 2.5 0 .688.278.125.505-1.25.505s-1.937-.227-1.25-.505z"/></symbol><symbol viewBox="0 0 407.46167 138.26297" id="vaz_priora" xmlns="http://www.w3.org/2000/svg"><path d="M312.49 137.88c-6.656-2.438-10.082-4.338-13.728-7.615-2.326-2.09-4.898-3.8-5.716-3.8-2.32 0-8.5-5.928-10.053-9.644l-1.402-3.355-58.8.11c-32.341.06-70.065.398-83.83.75l-25.03.64-3.929 4.352c-9.948 11.017-23.194 18.148-33.71 18.148-7.901 0-16.53-3.112-20.303-7.323-5.264-5.875-6.018-7.076-7.64-12.177-1.176-3.702-2.144-5.083-3.724-5.32-1.579-.236-2.136.205-2.136 1.691 0 1.106-.406 2.262-.901 2.568-.888.549-29.657-1.057-35.694-1.992-2.598-.403-3.321-1.16-4.5-4.714-1.705-5.14-1.903-22.806-.277-24.83.62-.772 1.47-2.528 1.887-3.903.417-1.375 2.048-4.381 3.622-6.68 1.575-2.3 2.863-4.55 2.863-5 0-1.612 7.255-6.567 14.317-9.78 13.23-6.02 39.078-11.75 65.683-14.563 5.775-.61 12.309-1.692 14.52-2.404 2.21-.712 5.473-1.081 7.25-.82 1.839.27 3.23.034 3.23-.546 0-.561.797-.812 1.772-.557 1.081.283 4.88-1.77 9.75-5.268 13.155-9.45 31.016-21.027 39.759-25.77C181.357 1.617 193.486.056 243.99.003c46.31-.047 47.721.157 62.74 9.017 6.061 3.576 15.795 9.941 21.63 14.144 5.837 4.204 12.64 8.272 15.12 9.041 2.48.769 12.158 1.842 21.508 2.385 9.35.543 19.695 1.3 22.988 1.681 5.888.683 5.997.753 6.588 4.195.33 1.925 1.522 5.075 2.649 7 1.489 2.545 2.22 6.091 2.679 13 .616 9.282.71 9.569 4.1 12.5l3.469 3-.09 10.957c-.05 6.027-.472 11.962-.939 13.19-1.077 2.834-2.764 3.284-29.891 7.979l-22.053 3.817v2.851c0 3.864-3.363 3.376-3.816-.553-.223-1.934-.886-2.741-2.25-2.741-1.173 0-1.936.688-1.94 1.75-.024 7.614-7.091 17.684-15.187 21.64-5.162 2.523-15.595 4.2-18.807 3.023z"/></symbol><symbol viewBox="0 0 952.66925 334.52072" id="vaz_vesta" xmlns="http://www.w3.org/2000/svg"><path d="M773.335 334.35c-.272-.272-3.966-.72-8.21-.996-4.244-.275-9.751-1.192-12.239-2.037-2.487-.844-5.364-1.535-6.392-1.535-6.237 0-32.902-18.008-37.56-25.366-3.37-5.321-6.67-8.536-10.928-10.643-4.015-1.986-11.547-8.32-11.6-9.755-.015-.405-1.606-2.435-3.537-4.512l-3.51-3.775-209.712 1.167c-157.088.874-210.033 1.46-210.987 2.334-.7.642-2.098 2.716-3.105 4.609-1.074 2.017-3.039 3.855-4.748 4.44-6.074 2.085-9.908 5.209-12.7 10.348-3.27 6.02-13.859 16.749-19.38 19.637a314.87 314.87 0 0 0-8.294 4.552c-6.57 3.75-19.213 7.97-25.251 8.43-9.37.714-28.818-1.258-34.749-3.522-11.51-4.395-23.071-11.287-28.802-17.17-3.097-3.18-6.096-6.595-6.664-7.59-.569-.995-2.296-3.432-3.84-5.415-2.721-3.496-5.753-10.317-8.008-18.02-.977-3.333-1.458-3.75-4.333-3.75-1.78 0-3.537.49-3.906 1.088-.37.598-1.522.865-2.56.594-1.037-.272-1.887-.019-1.887.562 0 2.16-41.25-1.175-64.97-5.253-15.536-2.67-18.199-3.513-21.285-6.735-2.564-2.676-2.595-2.853-1.055-6.034.873-1.802 2.875-4.36 4.449-5.684 3.487-2.935 3.509-3.598.369-11.327C1.768 227.8-1.786 205.635.916 199.17c1.181-2.828 7.21-8.257 10.832-9.755.728-.3-.1-1.697-2.142-3.616-2.567-2.413-3.073-3.432-2.215-4.466.611-.737 1.381-3.615 1.71-6.396.414-3.495 1.33-5.744 2.966-7.28 1.301-1.223 2.366-3.18 2.366-4.35 0-1.169.54-2.665 1.2-3.325.934-.933.711-1.2-1-1.2-3.074 0-2.766-1.043 1.55-5.246 8.27-8.053 41.306-20.59 78.4-29.752 30.078-7.43 108.164-22.913 123.85-24.559 5.306-.556 7.076-1.226 9.63-3.643 2.908-2.75 3.403-2.885 6.943-1.908 3.682 1.017 4.207.817 15.37-5.857 32.32-19.322 78.459-42.119 127.057-62.777 18.616-7.913 26.883-10.427 50-15.205 28.026-5.792 43.296-7.36 89-9.142 55.458-2.16 107.16.734 153.542 8.595 46.782 7.928 52.42 9.686 109.958 34.271 15.4 6.58 36.775 15.603 47.5 20.051l19.5 8.086 22.5 3.621c68.811 11.074 64.324 10.2 66.552 12.959 2.737 3.39 4.445 18.158 5.496 47.506.89 24.869 1.796 29.767 7.649 41.39l3.54 7.028-.692 15.041c-.38 8.273-1.148 17.966-1.705 21.54a1001.12 1001.12 0 0 0-1.79 12.025c-.856 6.075-3.537 12.024-7.589 16.84-3.577 4.251-8.961 5.748-50.746 14.107-34.578 6.918-34.796 6.947-36.75 4.994-1.08-1.08-3.315-1.965-4.965-1.965-2.383 0-3 .433-3 2.106 0 1.158-.724 4.87-1.609 8.25-.885 3.379-1.71 6.594-1.834 7.144-.124.55-.75 2.237-1.39 3.75a247.963 247.963 0 0 0-2.05 5c-2.369 6.028-14.502 20.611-20.503 24.64-8.221 5.521-12.774 8.112-15.394 8.758-1.496.37-4.454 1.57-6.574 2.667-2.12 1.097-7.294 2.558-11.5 3.246-4.205.688-8.344 1.532-9.198 1.876-.854.344-1.774.403-2.046.131z"/></symbol><symbol viewBox="0 0 304.36 304.36" id="vk" xmlns="http://www.w3.org/2000/svg"><path d="M261.945 175.576c10.096 9.857 20.752 19.131 29.807 29.982 4 4.822 7.787 9.798 10.684 15.394 4.105 7.955.387 16.709-6.746 17.184l-44.34-.02c-11.436.949-20.559-3.655-28.23-11.474-6.139-6.253-11.824-12.908-17.727-19.372-2.42-2.642-4.953-5.128-7.979-7.093-6.053-3.929-11.307-2.726-14.766 3.587-3.523 6.421-4.322 13.531-4.668 20.687-.475 10.441-3.631 13.186-14.119 13.664-22.414 1.057-43.686-2.334-63.447-13.641-17.422-9.968-30.932-24.04-42.691-39.971-22.895-31.021-40.428-65.108-56.186-100.15C-2.01 76.458.584 72.22 9.295 72.07c14.465-.281 28.928-.261 43.41-.02 5.879.086 9.771 3.458 12.041 9.012 7.826 19.243 17.402 37.551 29.422 54.521 3.201 4.518 6.465 9.036 11.113 12.216 5.142 3.521 9.057 2.354 11.476-3.374 1.535-3.632 2.207-7.544 2.553-11.434 1.146-13.383 1.297-26.743-.713-40.079-1.234-8.323-5.922-13.711-14.227-15.286-4.238-.803-3.607-2.38-1.555-4.799 3.564-4.172 6.916-6.769 13.598-6.769h50.111c7.889 1.557 9.641 5.101 10.721 13.039l.043 55.663c-.086 3.073 1.535 12.192 7.07 14.226 4.43 1.448 7.35-2.096 10.008-4.905 11.998-12.734 20.561-27.783 28.211-43.366 3.395-6.852 6.314-13.968 9.143-21.078 2.096-5.276 5.385-7.872 11.328-7.757l48.229.043c1.43 0 2.877.021 4.262.258 8.127 1.385 10.354 4.881 7.844 12.817-3.955 12.451-11.65 22.827-19.174 33.251-8.043 11.129-16.645 21.877-24.621 33.072-7.328 10.223-6.746 15.376 2.357 24.255zm0 0" fill-rule="evenodd" clip-rule="evenodd"/></symbol></svg>