<svg xmlns="http://www.w3.org/2000/svg" xmlns:xlink="http://www.w3.org/1999/xlink" width="24" height="23" viewBox="0 0 24 23"><defs><path id="f4jna" d="M1252.96 74.18l-1.62 8.04c-.2 1.01-1.13 1.78-2.15 1.78h-8.39a2.24 2.24 0 0 1-2.14-1.78l-1.62-8.04a1.77 1.77 0 0 1 1.75-2.18h2.21a4 4 0 1 1 8 0h2.2c1.17 0 2 1 1.76 2.18zm-12.38 7.64c.02.08.14.18.22.18h8.4c.08 0 .2-.1.21-.18l.37-1.82h-9.56zM1245 70a2 2 0 0 0-2 2h4a2 2 0 0 0-2-2zm-6 4l.81 4h10.38l.81-4z"/></defs><g><g transform="translate(-1233 -66)"><use fill="#5f6edc" xlink:href="#f4jna"/></g></g></svg>