<svg xmlns="http://www.w3.org/2000/svg" xmlns:xlink="http://www.w3.org/1999/xlink" width="24" height="23" viewBox="0 0 24 23"><defs><path id="fcrma" d="M1025.28 1023.66l-1.01.89a2 2 0 0 1-2.55 0c-.21-.18-.57-.48-1.01-.89a36.8 36.8 0 0 1-2.18-2.15 22.08 22.08 0 0 1-2-2.45 7.23 7.23 0 0 1-1.53-4.01 4.85 4.85 0 0 1 1.44-3.64 4.93 4.93 0 0 1 6.55-.3 4.92 4.92 0 0 1 6.56.3 4.85 4.85 0 0 1 1.44 3.63 7.2 7.2 0 0 1-1.53 4.02 22 22 0 0 1-2 2.45c-.7.75-1.44 1.47-2.18 2.15z"/></defs><g><g transform="translate(-1011 -1007)"><use fill="#ff4a5d" xlink:href="#fcrma"/></g></g></svg>