<svg xmlns="http://www.w3.org/2000/svg" xmlns:xlink="http://www.w3.org/1999/xlink" width="24" height="23" viewBox="0 0 24 23"><defs><path id="56zya" d="M425.28 603.66l-1.01.89a2 2 0 0 1-2.55 0c-.21-.18-.57-.48-1.01-.89-.74-.68-1.49-1.4-2.18-2.15a22.03 22.03 0 0 1-2-2.45 7.23 7.23 0 0 1-1.53-4.01 4.85 4.85 0 0 1 1.44-3.64 4.93 4.93 0 0 1 6.55-.3 4.92 4.92 0 0 1 6.56.3 4.85 4.85 0 0 1 1.44 3.63 7.2 7.2 0 0 1-1.53 4.02c-.61.86-1.28 1.68-2 2.45-.7.75-1.44 1.47-2.18 2.15zm-1.25-10.82l-1.04 1.02-1.03-1.02a2.94 2.94 0 0 0-4.12 0 2.86 2.86 0 0 0-.85 2.18c-.04 2.98 6 7.98 6 7.98s6.04-5 6-7.98c.04-.82-.27-1.61-.85-2.18a2.93 2.93 0 0 0-4.11 0z"/></defs><g><g transform="translate(-411 -587)"><use fill="#bbb" xlink:href="#56zya"/></g></g></svg>